# xmcd
#
# Track frame offsets:
# 150
# 7859
# 37895
# 67329
# 96478
# 141073
# 171154
# 205181
# 245897
# 274194
# 312980
#
# Disc length: 4507 seconds
#
#
# Revision: 0
# Processed by: cddbd v1.5.2PL0 Copyright (c) Steve Scherf et al.
# Submitted via: FreeRIP 2.96 
#
DISCID=a011990b
DTITLE=Amy Tan - Der Geist der Madame Chen CD1v5
DYEAR=2007
DGENRE=Hörbuch
TTITLE0=01 Touristen verlassen Burma
TTITLE1=02 Ein Abriss meines verkuerzten Lebens
TTITLE2=03 ...Als dann am 11.Dezember
TTITLE3=04 ...Ich kam 1937
TTITLE4=05 ...Als der erste Teil meiner Beerdigung
TTITLE5=06 Geaenderte Plaene
TTITLE6=07 ...Wie jeder ungebaerdige junge  Hund
TTITLE7=08 ...Sind dir die Baeume am Strassenrand
TTITLE8=09 ...Um neun Uhr frueh
TTITLE9=10 Eine Frage des Karmas
TTITLE10=11 Von Marlenas und Esmés Gesang
EXTD=gelesen von Maren Kroymann
EXTT0=
EXTT1=
EXTT2=
EXTT3=
EXTT4=
EXTT5=
EXTT6=
EXTT7=
EXTT8=
EXTT9=
EXTT10=
PLAYORDER=
